<?xml version="1.0" standalone="no"?>
<!DOCTYPE svg PUBLIC "-//W3C//DTD SVG 20010904//EN"
 "http://www.w3.org/TR/2001/REC-SVG-20010904/DTD/svg10.dtd">
<svg version="1.0" xmlns="http://www.w3.org/2000/svg"
 width="500.000000pt" height="500.000000pt" viewBox="0 0 500.000000 500.000000"
 preserveAspectRatio="xMidYMid meet">

<g transform="translate(0.000000,500.000000) scale(0.100000,-0.100000)"
fill="#000000" stroke="none">
<path d="M960 3891 c0 -4 33 -10 73 -13 84 -5 140 -29 171 -71 21 -28 21 -39
24 -753 1 -465 6 -724 12 -724 7 0 10 252 10 707 0 597 2 705 14 693 7 -8 221
-327 476 -707 l463 -693 88 0 89 0 2 724 c3 714 3 725 24 753 31 42 87 66 171
71 40 3 73 9 73 13 0 5 -126 9 -280 9 -154 0 -280 -4 -280 -9 0 -4 34 -11 75
-14 86 -6 142 -32 171 -80 18 -30 19 -62 22 -657 1 -343 -1 -621 -5 -616 -4 4
-213 314 -464 689 l-457 682 -236 3 c-132 1 -236 -2 -236 -7z"/>
<path d="M2410 3050 c0 -5 12 -10 28 -10 48 0 97 -19 126 -49 21 -22 55 -105
137 -337 60 -169 113 -312 117 -316 5 -5 61 -7 124 -6 l116 3 -93 268 c-103
295 -113 334 -95 376 15 37 50 52 133 59 37 2 67 9 67 13 0 5 -148 9 -330 9
-213 0 -330 -4 -330 -10z"/>
<path d="M3450 3051 c0 -5 51 -11 113 -13 131 -5 169 -19 187 -72 14 -44 8
-71 -90 -369 -44 -134 -80 -249 -80 -256 0 -48 32 30 120 293 56 167 112 319
125 338 30 44 87 68 160 68 30 0 55 5 55 10 0 6 -105 10 -295 10 -166 0 -295
-4 -295 -9z"/>
<path d="M2910 2105 c0 -32 -2 -34 -19 -24 -24 16 -48 6 -63 -25 -9 -20 -8
-30 6 -51 17 -26 50 -33 62 -14 4 8 9 7 15 -2 5 -9 9 19 9 69 0 45 -2 82 -5
82 -3 0 -5 -16 -5 -35z m-12 -37 c7 -7 12 -21 12 -33 0 -46 -53 -62 -71 -21
-21 45 26 87 59 54z"/>
<path d="M1942 2059 c2 -71 2 -72 5 -15 l4 58 46 -61 c25 -33 47 -61 49 -61 2
0 3 35 2 78 l-1 77 -6 -65 -6 -64 -47 64 -48 64 2 -75z"/>
<path d="M2541 2109 c-5 -13 -16 -42 -26 -64 l-17 -40 -29 60 c-15 33 -28 53
-28 45 0 -8 13 -42 29 -75 23 -51 29 -57 35 -40 5 11 19 44 32 74 13 30 21 56
18 59 -2 3 -9 -6 -14 -19z"/>
<path d="M2321 2108 c-1 -10 -7 -18 -13 -18 -10 0 -10 -2 -1 -8 6 -4 13 -27
15 -51 2 -26 8 -46 16 -47 7 -1 8 0 2 3 -15 7 -13 93 3 93 8 0 9 3 1 8 -6 4
-14 14 -17 22 -4 12 -6 11 -6 -2z"/>
<path d="M2096 2068 c-21 -29 -20 -51 2 -71 20 -18 57 -23 66 -8 3 4 -6 6 -21
3 -17 -3 -30 1 -39 12 -16 22 -3 70 20 74 20 4 48 -16 40 -29 -3 -5 0 -9 5 -9
16 0 13 16 -5 34 -22 22 -50 20 -68 -6z"/>
<path d="M2200 2086 c0 -5 8 -18 17 -28 16 -18 16 -21 -1 -51 l-17 -32 21 25
22 25 19 -24 c22 -27 25 -15 4 13 -13 17 -13 22 0 42 21 33 19 40 -5 13 l-20
-24 -20 25 c-11 14 -20 21 -20 16z"/>
<path d="M2598 2079 c-12 -6 -18 -22 -18 -45 0 -42 35 -65 72 -46 22 11 21 11
-5 6 -15 -4 -34 -1 -42 6 -19 16 -19 54 0 70 18 15 55 4 56 -18 0 -11 2 -13 6
-4 6 17 -15 42 -36 42 -9 0 -24 -5 -33 -11z"/>
<path d="M2755 2081 c15 -6 22 -21 26 -57 l6 -49 -1 55 c-1 51 -3 55 -26 57
-22 2 -23 2 -5 -6z"/>
<path d="M2963 2064 c-15 -24 -15 -29 -2 -53 11 -19 23 -26 44 -26 21 0 33 7
44 26 13 24 13 29 -2 53 -11 16 -27 26 -42 26 -15 0 -31 -10 -42 -26z m78 -5
c16 -31 -3 -69 -36 -69 -17 0 -29 8 -36 24 -15 32 4 66 36 66 15 0 29 -9 36
-21z"/>
<path d="M2711 2033 c1 -53 6 -49 11 10 2 20 0 37 -4 37 -4 0 -8 -21 -7 -47z"/>
<path d="M3093 2035 c0 -27 2 -38 4 -22 2 15 2 37 0 50 -2 12 -4 0 -4 -28z"/>
<path d="M2995 1821 c3 -11 43 -125 89 -253 l82 -233 51 -3 51 -3 85 256 c57
169 81 255 73 255 -11 0 -69 -159 -91 -253 -10 -40 -22 -41 -29 -2 -4 18 -22
84 -42 144 l-35 111 -120 0 c-115 0 -120 -1 -114 -19z"/>
</g>
</svg>
