<?xml version="1.0" standalone="no"?>
<!DOCTYPE svg PUBLIC "-//W3C//DTD SVG 20010904//EN"
 "http://www.w3.org/TR/2001/REC-SVG-20010904/DTD/svg10.dtd">
<svg version="1.0" xmlns="http://www.w3.org/2000/svg"
 width="500.000000pt" height="500.000000pt" viewBox="0 0 500.000000 500.000000"
 preserveAspectRatio="xMidYMid meet">

<g transform="translate(0.000000,500.000000) scale(0.100000,-0.100000)"
fill="#000000" stroke="none">
<path d="M960 3892 c0 -5 34 -12 75 -15 85 -6 139 -29 169 -70 21 -28 21 -39
24 -753 1 -461 6 -724 12 -724 6 0 11 257 12 708 l3 707 473 -707 472 -708 90
0 90 0 2 724 c3 714 3 725 24 753 30 41 84 64 169 70 41 3 75 10 75 14 0 5
-126 9 -280 9 -154 0 -280 -4 -280 -9 0 -4 33 -11 74 -14 121 -9 180 -55 191
-149 3 -29 5 -313 3 -631 l-3 -578 -461 688 -461 688 -236 3 c-131 1 -237 -2
-237 -6z"/>
<path d="M2410 3050 c0 -5 12 -10 28 -10 48 0 97 -19 126 -49 20 -21 55 -108
137 -337 60 -169 113 -312 117 -316 5 -5 61 -7 124 -6 l116 3 -93 268 c-103
295 -113 334 -95 376 15 37 48 51 132 58 37 3 68 10 68 14 0 5 -148 9 -330 9
-213 0 -330 -4 -330 -10z"/>
<path d="M3450 3051 c0 -5 51 -11 113 -13 133 -5 171 -20 185 -72 13 -47 10
-59 -84 -353 -46 -143 -84 -266 -84 -272 0 -6 4 -11 9 -11 5 0 54 135 109 299
55 164 112 317 127 339 32 49 84 72 160 72 30 0 55 5 55 10 0 6 -105 10 -295
10 -162 0 -295 -4 -295 -9z"/>
<path d="M2910 2103 c0 -29 -3 -34 -12 -25 -27 27 -78 -2 -78 -45 0 -37 58
-70 76 -42 4 8 9 7 15 -2 5 -9 9 19 9 69 0 45 -2 82 -5 82 -3 0 -5 -17 -5 -37z
m-12 -35 c7 -7 12 -21 12 -33 0 -46 -53 -62 -71 -21 -21 45 26 87 59 54z"/>
<path d="M1942 2059 c2 -71 2 -72 5 -15 l4 58 46 -61 c25 -33 47 -61 49 -61 2
0 3 35 2 78 l-1 77 -6 -65 -6 -64 -47 64 -48 64 2 -75z"/>
<path d="M2541 2109 c-5 -13 -16 -42 -26 -64 l-17 -40 -29 60 c-15 33 -28 53
-28 45 0 -8 13 -42 29 -75 23 -51 29 -57 35 -40 5 11 19 44 32 74 13 30 21 56
18 59 -2 3 -9 -6 -14 -19z"/>
<path d="M2321 2108 c-1 -10 -7 -18 -13 -18 -10 0 -10 -2 -1 -8 6 -4 13 -27
15 -51 2 -26 8 -46 16 -47 7 -1 8 0 2 3 -15 7 -13 93 3 93 8 0 9 3 1 8 -6 4
-14 14 -17 22 -4 12 -6 11 -6 -2z"/>
<path d="M2097 2072 c-22 -24 -21 -55 1 -75 20 -18 57 -23 66 -8 3 4 -6 6 -21
3 -17 -3 -30 1 -39 12 -16 22 -3 70 20 74 20 4 48 -16 40 -29 -3 -5 0 -9 5 -9
16 0 13 16 -5 34 -21 21 -47 20 -67 -2z"/>
<path d="M2200 2084 c0 -6 7 -17 15 -24 8 -7 15 -18 15 -25 0 -7 -7 -18 -15
-25 -8 -7 -15 -18 -15 -24 1 -6 10 0 21 14 l21 25 19 -24 c22 -27 25 -15 4 13
-13 17 -13 22 0 42 21 33 19 40 -5 13 l-20 -24 -20 25 c-11 14 -20 20 -20 14z"/>
<path d="M2592 2078 c-7 -7 -12 -26 -12 -43 0 -17 5 -36 12 -43 15 -15 48 -15
68 -2 11 8 8 9 -13 4 -16 -4 -33 -1 -42 6 -19 16 -19 54 0 70 18 15 55 4 56
-18 0 -11 2 -13 6 -4 13 32 -48 57 -75 30z"/>
<path d="M2755 2081 c15 -6 22 -21 26 -57 l6 -49 -1 55 c-1 51 -3 55 -26 57
-22 2 -23 2 -5 -6z"/>
<path d="M2963 2064 c-15 -24 -15 -29 -2 -53 11 -19 23 -26 44 -26 21 0 33 7
44 26 13 24 13 29 -2 53 -11 16 -27 26 -42 26 -15 0 -31 -10 -42 -26z m71 0
c19 -18 20 -28 6 -55 -15 -28 -58 -25 -71 5 -22 49 28 88 65 50z"/>
<path d="M2711 2033 c1 -53 6 -49 11 10 2 20 0 37 -4 37 -4 0 -8 -21 -7 -47z"/>
<path d="M3090 2035 c0 -27 2 -46 4 -44 8 8 10 78 3 85 -4 4 -7 -14 -7 -41z"/>
<path d="M2994 1823 c3 -10 43 -124 89 -253 l82 -235 52 -3 51 -3 85 256 c59
176 81 255 72 255 -11 0 -66 -151 -90 -253 -10 -40 -22 -41 -29 -2 -4 18 -22
84 -42 144 l-35 111 -120 0 c-110 0 -120 -1 -115 -17z"/>
</g>
</svg>
